<?xml version="1.0" encoding="utf-8"?>
<!-- Generator: Adobe Illustrator 24.1.2, SVG Export Plug-In . SVG Version: 6.00 Build 0)  -->
<svg version="1.1" id="Layer_1" xmlns="http://www.w3.org/2000/svg" xmlns:xlink="http://www.w3.org/1999/xlink" x="0px" y="0px"
	 viewBox="0 0 121.79 106.48" style="enable-background:new 0 0 121.79 106.48;" xml:space="preserve">
<style type="text/css">
	.st0{fill:#AB934B;stroke:#AB934B;stroke-miterlimit:10;}
	.st1{fill:#9DA7C4;}
	.st2{fill:#F4B5B0;}
	.st3{fill:#FFFFFF;}
	.st4{fill:#EDE9D6;}
	.st5{fill:#B8D9DF;}
	.st6{fill:#73A5C5;}
	.st7{fill:#70952C;}
	.st8{fill:#6A591A;}
	.st9{fill:#F2E500;}
	.st10{fill:#F39200;}
	.st11{fill:#AB934B;}
	.st12{fill:none;stroke:#AB934B;stroke-miterlimit:10;}
	.st13{fill:none;stroke:#F39200;stroke-width:2;stroke-miterlimit:10;}
	.st14{fill:#CFCFCE;}
	.st15{fill:none;stroke:#DAEFF9;stroke-width:13;stroke-miterlimit:10;}
	.st16{fill:none;stroke:#DAEFF9;stroke-width:8;stroke-miterlimit:10;}
	.st17{fill:none;}
	.st18{fill:#E94D27;}
	.st19{fill:#E54D35;}
	.st20{clip-path:url(#SVGID_2_);fill:#8BC1EA;}
	.st21{clip-path:url(#SVGID_2_);fill:none;}
	.st22{clip-path:url(#SVGID_2_);fill:none;stroke:#040506;stroke-miterlimit:10;}
	.st23{fill:#040506;}
	.st24{fill:#8BC1EA;}
	.st25{fill:#8EC1E6;}
	.st26{clip-path:url(#SVGID_4_);fill:#8BC1EA;}
	.st27{clip-path:url(#SVGID_4_);fill:none;}
	.st28{clip-path:url(#SVGID_4_);fill:none;stroke:#040506;stroke-miterlimit:10;}
	.st29{fill:#88C4EC;}
	.st30{fill:#DAEFF9;}
	.st31{fill:#DAEFF5;}
	.st32{fill:none;stroke:#000000;stroke-width:0.75;stroke-linecap:round;stroke-miterlimit:10;}
	.st33{fill:none;stroke:#000000;stroke-width:2;stroke-linecap:round;stroke-miterlimit:10;}
</style>
<g>
	<line class="st17" x1="75.99" y1="80.96" x2="75.61" y2="80.21"/>
	<polyline class="st17" points="74.75,78.5 74.76,78.51 75.04,79.07 75.61,80.21 75.99,80.96 76.15,81.27 76.63,82.22 	"/>
	<polyline class="st17" points="76.15,81.85 75.81,81.18 75.68,80.93 75.46,80.49 74.72,79.04 74.51,78.61 	"/>
	<path class="st19" d="M67.93,61.7H44.51c-2.72,0-4.94-2.22-4.94-4.94V42.77c0-2.72,1.43-5.79,4.15-5.79l24.21,0.85
		c2.72,0,3.36,2.04,3.36,4.76v13.78C71.29,59.09,70.64,61.7,67.93,61.7z"/>
	<polyline class="st17" points="78.69,74.59 79.51,76.43 79.51,76.44 79.65,76.77 80.21,78.04 80.47,78.62 80.66,79.05 81.03,79.89 
			"/>
	<g>
		<defs>
			<path id="SVGID_1_" d="M65.94,76.49l-0.02-0.04l-0.4-0.95l-3.15-7.55l6.84-2.85l1.06,2.54c0.56-0.85,1.33-1.63,2.28-2.28
				c3.02-2.05,6.72-1.88,8.27,0.39c0.25,0.37,0.79,2.04,0.79,2.45c0,0.03,0,0.05,0,0.08l0,0c-0.01,0.17-0.05,0.32-0.11,0.45
				c-0.37,0.78-1.59,1.02-2.81,1.97l-0.01,0l-3.98,2.18l-0.03,0.02c-0.76,0.33-1.36,0.63-1.83,0.88l0.04,0.1l-1.56,0.86l-5.19,2.08
				L65.94,76.49z"/>
		</defs>
		<clipPath id="SVGID_2_">
			<use xlink:href="#SVGID_1_"  style="overflow:visible;"/>
		</clipPath>
		<path class="st20" d="M65.94,76.49l-0.02-0.04l-0.4-0.95l-3.15-7.55l6.84-2.85l1.06,2.54c0.56-0.85,1.33-1.63,2.28-2.28
			c3.02-2.05,6.72-1.88,8.27,0.39c0.25,0.37,0.79,2.04,0.79,2.45c0,0.03,0,0.05,0,0.08l0,0c-0.01,0.17-0.05,0.32-0.11,0.45
			c-0.37,0.78-1.59,1.02-2.81,1.97l-0.01,0l-3.98,2.18l-0.03,0.02c-0.76,0.33-1.36,0.63-1.83,0.88l0.04,0.1l-1.56,0.86l-5.19,2.08
			L65.94,76.49z"/>
		<polyline class="st21" points="65.07,74.97 65.76,76.15 65.78,76.19 65.97,76.52 66.55,77.52 66.78,77.9 66.91,78.13 67.23,78.66 
					"/>
		<path class="st22" d="M70.15,81.72l-1.52,0.72c-0.88,0.42-1.93,0.04-2.34-0.84l-2.95-6.21c-0.42-0.88-0.04-1.93,0.84-2.34
			l1.52-0.72c0.88-0.42,1.93-0.04,2.34,0.84l2.95,6.21C71.41,80.26,71.03,81.31,70.15,81.72z"/>
	</g>
	<g>
		<path class="st23" d="M77.26,72.97c-0.01,0.05-0.03,0.08-0.05,0.12c0,0.01-0.01,0.02-0.02,0.03c-0.01,0.01-0.02,0.02-0.03,0.03
			c-0.02,0.02-0.04,0.03-0.06,0.04c-0.22,0.11-0.34-0.13-0.57-0.01c-0.22,0.11-0.1,0.34-0.32,0.45c-0.21,0.11-0.34-0.12-0.56-0.01
			c-0.22,0.11-0.1,0.34-0.32,0.45c-0.23,0.1-0.34-0.13-0.56-0.02c-0.23,0.11-0.1,0.34-0.33,0.46c-0.21,0.11-0.34-0.12-0.56-0.01
			c-0.21,0.11-0.1,0.34-0.31,0.45c-0.23,0.11-0.35-0.12-0.57-0.01c-0.22,0.11-0.1,0.34-0.32,0.46c-0.23,0.1-0.34-0.12-0.57-0.01
			c-0.1,0.05-0.13,0.13-0.16,0.21l0,0c-0.01,0.07-0.03,0.13-0.08,0.17l0,0c-0.02,0.02-0.04,0.03-0.06,0.04
			c-0.02,0-0.03,0.02-0.05,0.02c-0.19,0.06-0.31-0.13-0.51-0.03c-0.22,0.12-0.1,0.34-0.32,0.46c-0.22,0.11-0.34-0.13-0.57-0.01
			c-0.22,0.1-0.1,0.34-0.32,0.45c-0.22,0.11-0.34-0.12-0.57-0.01c-0.22,0.11-0.1,0.34-0.32,0.45c-0.22,0.11-0.34-0.12-0.56-0.01
			c-0.22,0.1-0.1,0.33-0.32,0.45c-0.23,0.11-0.34-0.12-0.57-0.02c-0.22,0.12-0.1,0.35-0.32,0.45c-0.21,0.11-0.34-0.1-0.54-0.01
			l-0.14-0.23l-0.22-0.38c0,0,0.01,0,0.02-0.01c0.22-0.1,0.1-0.33,0.32-0.45c0.22-0.1,0.34,0.12,0.56,0.02
			c0.23-0.11,0.1-0.35,0.33-0.45c0.22-0.12,0.34,0.11,0.56,0.01c0.22-0.11,0.1-0.34,0.32-0.46c0.22-0.11,0.34,0.13,0.56,0.01
			c0.22-0.1,0.1-0.34,0.32-0.44c0.23-0.12,0.34,0.12,0.57,0.01c0.21-0.11,0.1-0.34,0.31-0.45c0.23-0.11,0.35,0.12,0.57,0.01
			c0.17-0.08,0.14-0.24,0.22-0.36c0.02-0.03,0.06-0.05,0.09-0.07c0.07-0.03,0.12-0.03,0.18-0.02c0.12,0.02,0.23,0.11,0.39,0.04
			c0.22-0.11,0.1-0.34,0.32-0.46c0.22-0.1,0.34,0.12,0.56,0.01c0.23-0.1,0.1-0.34,0.33-0.45c0.22-0.11,0.34,0.12,0.57,0.01
			c0.22-0.11,0.1-0.34,0.32-0.45c0.22-0.11,0.34,0.12,0.56,0.01c0.22-0.11,0.1-0.34,0.33-0.45c0.22-0.11,0.34,0.13,0.56,0.01
			c0.23-0.11,0.1-0.34,0.33-0.45c0.22-0.11,0.34,0.12,0.56,0.01c0.19-0.1,0.12-0.29,0.26-0.4c0,0,0-0.01,0.01-0.01
			c0.02-0.01,0.04-0.03,0.06-0.04c0.05-0.02,0.1-0.03,0.14-0.03l0.37,0.56L77.26,72.97z"/>
		<path class="st23" d="M82.53,70.45c-0.01,0.01-0.02,0.02-0.03,0.03l0,0c-0.01,0.02-0.04,0.03-0.06,0.05
			c-0.02,0-0.03,0.01-0.05,0.02c-0.19,0.06-0.31-0.13-0.51-0.03c-0.22,0.11-0.1,0.34-0.32,0.46c-0.22,0.11-0.34-0.12-0.57-0.01
			c-0.22,0.1-0.1,0.34-0.32,0.44c-0.22,0.12-0.33-0.12-0.57-0.01c-0.22,0.11-0.1,0.34-0.32,0.46c-0.22,0.1-0.34-0.13-0.57-0.01
			c-0.22,0.1-0.1,0.33-0.32,0.44c-0.23,0.11-0.34-0.12-0.56-0.01c-0.23,0.11-0.1,0.35-0.33,0.45c-0.22,0.11-0.34-0.12-0.56-0.01
			c-0.18,0.09-0.14,0.26-0.23,0.38c0,0.01-0.01,0.02-0.02,0.03c-0.01,0.01-0.02,0.02-0.03,0.03c-0.01,0.01-0.03,0.01-0.04,0.02
			c-0.01,0-0.02,0.01-0.02,0.01l-0.18-0.29l-0.08-0.13l-0.37-0.59c0,0,0-0.01,0.01-0.01c0.02-0.03,0.04-0.05,0.08-0.07
			c0.21-0.11,0.34,0.12,0.56,0.01c0.22-0.11,0.1-0.34,0.32-0.45c0.23-0.11,0.34,0.12,0.56,0.01c0.22-0.11,0.1-0.34,0.33-0.45
			c0.21-0.12,0.33,0.12,0.56,0.01c0.21-0.12,0.1-0.34,0.31-0.45c0.23-0.1,0.35,0.12,0.57,0.01c0.22-0.1,0.1-0.34,0.32-0.44
			c0.23-0.11,0.34,0.12,0.57,0.01c0.22-0.12,0.1-0.34,0.32-0.46c0.06-0.03,0.12-0.04,0.17-0.03c0.13,0.02,0.24,0.12,0.39,0.04
			c0.17-0.08,0.14-0.24,0.22-0.36c0.02-0.03,0.06-0.05,0.09-0.07c0.07-0.03,0.12-0.03,0.18-0.02c0.02,0,0.04,0.01,0.05,0.01
			l0.25,0.58L82.53,70.45z"/>
		<polygon points="65.9,76.38 66.48,77.38 66.71,77.76 71.14,75.56 72.78,74.75 74.64,73.83 74.68,73.82 76.64,72.84 76.85,72.74 
			77.05,72.64 78.83,71.75 78.84,71.75 82.34,70.02 82.08,69.44 81.52,68.17 81.46,68.2 81.27,68.3 65.69,76.02 65.69,76.02 
			65.72,76.06 		"/>
	</g>
	<path class="st14" d="M55.63,64.29h-0.41c-6.29,0-11.43-5.14-11.43-11.43v-5.61c0-6.29,5.14-11.43,11.43-11.43h0.41
		c6.29,0,11.43,5.14,11.43,11.43v5.61C67.06,59.15,61.92,64.29,55.63,64.29z"/>
	<g>
		<path class="st14" d="M79,50.35l-5.73,3.87c-6.05-9.7-9.34-9.98-9.37-9.98c0.01,0,0.26,0,0.71-0.25l-3.11-6.18
			c0.57-0.31,2.56-1.17,5.55,0.05c0.28,0.12,0.56,0.24,0.86,0.4c1.6,0.82,3.27,2.13,4.98,3.94C74.86,44.26,76.9,46.99,79,50.35z"/>
	</g>
	<path class="st24" d="M80.49,51.96c-1.59-2.75-4.05-5.83-5.66-2.56c-0.35,0.7-1.19,1.06-1.47,1.88c-0.15-0.24-0.33-0.39-0.53-0.4
		c-0.68-0.06-1.36,1.37-1.52,3.19c-0.15,1.82,0.28,3.34,0.96,3.4c0.56,0.05,1.11-0.9,1.38-2.23c0.11,0.25,0.23,0.5,0.37,0.75
		c1.59,2.75,3.27,4.51,6.15,2.8C81.93,57.75,82.08,54.71,80.49,51.96z"/>
	<g>
		<path class="st19" d="M71.29,52.63c-0.3,0-0.6-0.13-0.8-0.38c-0.36-0.44-0.29-1.09,0.15-1.45l5.55-4.52
			c0.44-0.36,1.09-0.29,1.45,0.15c0.36,0.44,0.29,1.09-0.15,1.45l-5.55,4.52C71.75,52.55,71.52,52.63,71.29,52.63z"/>
	</g>
	<path class="st25" d="M72.88,42.19c-0.95,0.8-2.43,1.03-3.81,0.48c-1.91-0.75-2.93-2.69-2.28-4.33c0.07-0.17,0.15-0.33,0.25-0.48
		c0.28,0.12,0.56,0.24,0.86,0.4C69.5,39.07,71.17,40.38,72.88,42.19z"/>
	<g>
		<path class="st14" d="M30.03,39.44l4.37-5.36c8.59,7.54,11.83,6.86,11.86,6.85c-0.01,0-0.24,0.08-0.61,0.44l4.76,5.01
			c-0.46,0.46-2.11,1.85-5.33,1.56c-0.3-0.03-0.61-0.07-0.93-0.13c-1.77-0.32-3.75-1.1-5.91-2.33C35.75,44.07,33,42.05,30.03,39.44z
			"/>
	</g>
	<path class="st24" d="M28.14,38.33c2.32,2.18,5.56,4.41,6.16,0.82c0.13-0.77,0.83-1.35,0.86-2.22c0.21,0.19,0.42,0.27,0.62,0.23
		c0.67-0.14,0.91-1.71,0.53-3.49c-0.38-1.79-1.23-3.12-1.9-2.98c-0.55,0.12-0.81,1.18-0.68,2.54c-0.18-0.21-0.36-0.41-0.58-0.61
		c-2.32-2.18-4.43-3.38-6.69-0.91C25.09,33.2,25.82,36.15,28.14,38.33z"/>
	<g>
		<path class="st19" d="M36.75,35.03c0.29-0.09,0.61-0.05,0.87,0.13c0.47,0.32,0.59,0.96,0.28,1.43l-4.01,5.93
			c-0.32,0.47-0.96,0.59-1.43,0.28c-0.47-0.32-0.59-0.96-0.28-1.43l4.01-5.93C36.33,35.24,36.53,35.1,36.75,35.03z"/>
	</g>
	<path class="st25" d="M36.83,44.61c0.77-0.97,2.17-1.49,3.64-1.22c2.02,0.36,3.4,2.06,3.09,3.8c-0.03,0.18-0.08,0.36-0.15,0.52
		c-0.29-0.06-0.6-0.13-0.92-0.22C40.76,47,38.87,46.04,36.83,44.61z"/>
	<polygon class="st14" points="56.95,59.45 62.45,67.82 68.91,64.78 63.39,55.87 	"/>
	<polygon class="st14" points="54.1,59.46 50.35,68.69 43.55,66.9 47.23,57.13 	"/>
	<g>
		<path class="st19" d="M62.33,69.51c-0.29-0.06-0.55-0.26-0.7-0.54c-0.26-0.51-0.05-1.13,0.46-1.38l6.39-3.21
			c0.51-0.26,1.13-0.05,1.38,0.46c0.26,0.51,0.05,1.13-0.46,1.38l-6.39,3.21C62.8,69.54,62.56,69.56,62.33,69.51z"/>
	</g>
	<polyline class="st17" points="31.56,83.33 31.89,82.47 32.07,82.03 32.29,81.44 32.8,80.14 32.93,79.81 32.93,79.81 33.66,77.93 	
		"/>
	<g>
		<defs>
			<path id="SVGID_3_" d="M48.27,77.76l-5.4-1.45l-1.65-0.66l0.03-0.1c-0.5-0.19-1.12-0.41-1.92-0.65l-0.03-0.01l-4.21-1.69l-0.01,0
				c-1.32-0.8-2.56-0.89-3.02-1.62c-0.08-0.13-0.14-0.27-0.17-0.44l0,0c0-0.03-0.01-0.05-0.01-0.08c-0.05-0.41,0.28-2.13,0.49-2.53
				c1.26-2.44,4.91-3.06,8.16-1.38c1.02,0.53,1.88,1.22,2.54,1.99l0.75-2.65l7.13,2.02l-2.22,7.88l-0.28,1l-0.02,0.05L48.27,77.76z"
				/>
		</defs>
		<clipPath id="SVGID_4_">
			<use xlink:href="#SVGID_3_"  style="overflow:visible;"/>
		</clipPath>
		<path class="st26" d="M48.27,77.76l-5.4-1.45l-1.65-0.66l0.03-0.1c-0.5-0.19-1.12-0.41-1.92-0.65l-0.03-0.01l-4.21-1.69l-0.01,0
			c-1.32-0.8-2.56-0.89-3.02-1.62c-0.08-0.13-0.14-0.27-0.17-0.44l0,0c0-0.03-0.01-0.05-0.01-0.08c-0.05-0.41,0.28-2.13,0.49-2.53
			c1.26-2.44,4.91-3.06,8.16-1.38c1.02,0.53,1.88,1.22,2.54,1.99l0.75-2.65l7.13,2.02l-2.22,7.88l-0.28,1l-0.02,0.05L48.27,77.76z"
			/>
		<polyline class="st27" points="47.4,79.72 47.65,79.15 47.75,78.91 47.93,78.5 48.39,77.44 48.53,77.1 48.56,77.05 49.1,75.79 		
			"/>
		<path class="st28" d="M44.86,83.11l1.59,0.53c0.92,0.31,1.92-0.19,2.23-1.11l2.18-6.52c0.31-0.92-0.19-1.92-1.11-2.23l-1.59-0.53
			c-0.92-0.31-1.92,0.19-2.23,1.11l-2.18,6.52C43.44,81.8,43.94,82.8,44.86,83.11z"/>
	</g>
	<g>
		<path class="st23" d="M36.75,75.27c0.02,0.04,0.04,0.08,0.06,0.11c0,0.01,0.01,0.02,0.02,0.02c0.01,0.01,0.02,0.02,0.03,0.03
			c0.02,0.02,0.04,0.03,0.07,0.04c0.23,0.08,0.32-0.16,0.56-0.08c0.23,0.08,0.14,0.32,0.37,0.41c0.23,0.09,0.32-0.16,0.55-0.07
			c0.23,0.08,0.14,0.33,0.37,0.41c0.24,0.08,0.32-0.16,0.56-0.08c0.24,0.08,0.14,0.33,0.38,0.41c0.23,0.09,0.32-0.16,0.56-0.08
			c0.23,0.08,0.14,0.33,0.37,0.41c0.24,0.08,0.33-0.16,0.56-0.08c0.23,0.09,0.14,0.33,0.37,0.41c0.24,0.08,0.33-0.17,0.56-0.08
			c0.11,0.04,0.14,0.11,0.18,0.19l0,0c0.02,0.06,0.05,0.12,0.1,0.16l0,0c0.02,0.02,0.04,0.03,0.07,0.04c0.02,0,0.03,0.01,0.05,0.02
			c0.19,0.03,0.29-0.17,0.5-0.1c0.23,0.09,0.14,0.33,0.37,0.41c0.23,0.09,0.32-0.16,0.56-0.08c0.23,0.08,0.14,0.32,0.37,0.41
			c0.23,0.08,0.32-0.16,0.56-0.08c0.23,0.09,0.14,0.33,0.37,0.41c0.23,0.08,0.32-0.16,0.56-0.08c0.23,0.08,0.14,0.32,0.37,0.41
			c0.24,0.08,0.33-0.17,0.56-0.08c0.23,0.09,0.14,0.33,0.37,0.41c0.23,0.08,0.32-0.14,0.54-0.08l0.11-0.25l0.18-0.41
			c0,0-0.01,0-0.02-0.01c-0.23-0.07-0.14-0.32-0.37-0.41c-0.23-0.08-0.33,0.17-0.56,0.08c-0.24-0.09-0.14-0.33-0.38-0.4
			c-0.23-0.09-0.32,0.15-0.56,0.08c-0.23-0.09-0.14-0.32-0.37-0.41c-0.23-0.08-0.32,0.16-0.56,0.08c-0.23-0.08-0.14-0.32-0.37-0.4
			c-0.24-0.09-0.33,0.16-0.56,0.08c-0.23-0.08-0.14-0.32-0.37-0.41c-0.24-0.08-0.33,0.16-0.56,0.08c-0.18-0.06-0.17-0.22-0.26-0.33
			c-0.03-0.03-0.06-0.04-0.1-0.06c-0.07-0.02-0.13-0.02-0.18,0c-0.12,0.03-0.21,0.14-0.38,0.08c-0.23-0.09-0.14-0.33-0.37-0.41
			c-0.23-0.08-0.33,0.16-0.56,0.08c-0.24-0.08-0.14-0.33-0.38-0.4c-0.23-0.09-0.32,0.16-0.56,0.08c-0.23-0.09-0.14-0.32-0.37-0.41
			c-0.23-0.09-0.33,0.16-0.56,0.08c-0.23-0.08-0.14-0.32-0.38-0.41c-0.23-0.08-0.32,0.16-0.55,0.07c-0.24-0.08-0.14-0.32-0.38-0.4
			c-0.23-0.09-0.32,0.16-0.56,0.08c-0.2-0.07-0.16-0.27-0.3-0.37c0,0,0-0.01-0.01-0.01c-0.02-0.01-0.04-0.02-0.06-0.03
			c-0.05-0.02-0.1-0.02-0.15-0.01l-0.3,0.6L36.75,75.27z"/>
		<path class="st23" d="M31.22,73.4c0.01,0.01,0.02,0.02,0.03,0.02l0,0c0.01,0.02,0.04,0.03,0.07,0.04c0.02,0,0.03,0.01,0.05,0.01
			c0.2,0.03,0.29-0.17,0.5-0.1c0.23,0.09,0.14,0.33,0.37,0.41c0.23,0.09,0.33-0.16,0.56-0.08c0.23,0.08,0.14,0.32,0.37,0.4
			c0.23,0.09,0.32-0.16,0.56-0.08c0.23,0.09,0.14,0.32,0.37,0.41c0.23,0.08,0.32-0.16,0.56-0.08c0.23,0.07,0.14,0.32,0.37,0.4
			c0.24,0.09,0.33-0.16,0.56-0.08c0.24,0.09,0.14,0.33,0.38,0.41c0.23,0.09,0.32-0.16,0.56-0.08c0.19,0.07,0.17,0.24,0.28,0.35
			c0,0.01,0.01,0.02,0.02,0.02c0.01,0.01,0.02,0.02,0.03,0.03c0.01,0.01,0.03,0.01,0.04,0.01c0.01,0,0.02,0.01,0.02,0l0.15-0.31
			l0.06-0.14l0.3-0.63c0,0,0-0.01-0.01-0.01c-0.02-0.02-0.05-0.04-0.09-0.06c-0.23-0.08-0.32,0.16-0.55,0.08
			c-0.23-0.08-0.14-0.33-0.37-0.41c-0.24-0.08-0.33,0.16-0.56,0.08c-0.23-0.09-0.14-0.33-0.38-0.4c-0.23-0.09-0.32,0.16-0.56,0.08
			c-0.23-0.09-0.14-0.33-0.37-0.41c-0.24-0.08-0.33,0.17-0.56,0.08c-0.23-0.07-0.14-0.32-0.37-0.4c-0.24-0.08-0.33,0.16-0.56,0.08
			c-0.23-0.09-0.14-0.33-0.37-0.41c-0.07-0.02-0.12-0.02-0.17-0.01c-0.13,0.04-0.22,0.14-0.39,0.08c-0.18-0.06-0.17-0.22-0.26-0.33
			c-0.03-0.03-0.07-0.04-0.1-0.06c-0.07-0.02-0.13-0.02-0.18,0c-0.02,0.01-0.04,0.01-0.05,0.02l-0.18,0.6L31.22,73.4z"/>
		<polygon points="48.59,76.95 48.61,76.91 48.6,76.91 32.22,71.11 32.02,71.04 31.95,71.02 31.54,72.35 31.36,72.95 35.04,74.25 
			35.05,74.25 36.93,74.92 37.14,74.99 37.36,75.07 39.42,75.8 39.46,75.81 41.42,76.5 43.14,77.11 47.81,78.76 47.98,78.36 
			48.44,77.3 		"/>
	</g>
	<g>
		<path class="st19" d="M51.16,70.05c0.28-0.1,0.52-0.32,0.63-0.62c0.19-0.53-0.09-1.12-0.62-1.32l-6.73-2.42
			c-0.54-0.19-1.13,0.09-1.32,0.62c-0.19,0.53,0.09,1.12,0.62,1.32l6.73,2.42C50.7,70.13,50.94,70.12,51.16,70.05z"/>
	</g>
	<path class="st19" d="M6.46,96.42c0,0,1.2-6.11,16.59-9.85c25.66-6.23,73.42-9.14,93.7,9.85"/>
	
		<ellipse transform="matrix(0.9714 -0.2375 0.2375 0.9714 -20.8997 7.8061)" class="st3" cx="21.95" cy="90.64" rx="5.67" ry="1.65"/>
	
		<ellipse transform="matrix(0.9975 -0.0709 0.0709 0.9975 -6.3904 3.1834)" class="st3" cx="41.67" cy="91.65" rx="7.46" ry="2.01"/>
	
		<ellipse transform="matrix(0.0938 -0.9956 0.9956 0.0938 -26.5781 143.4855)" class="st3" cx="65.53" cy="86.34" rx="2.01" ry="7.46"/>
	
		<ellipse transform="matrix(0.0938 -0.9956 0.9956 0.0938 -19.1467 164.136)" class="st3" cx="80.59" cy="92.59" rx="1.41" ry="4.67"/>
	
		<ellipse transform="matrix(0.0938 -0.9956 0.9956 0.0938 -3.6973 174.5681)" class="st3" cx="94.05" cy="89.32" rx="1.41" ry="6.23"/>
	<g>
		<path class="st29" d="M60.31,58.88c-11.9,2.76-17.06-3.4-17.31-3.71c-0.61-0.76-0.49-1.87,0.26-2.48c0.75-0.61,1.84-0.5,2.46,0.25
			c0.26,0.3,5.89,6.67,20.13,0.34c0.89-0.39,1.92,0.01,2.31,0.9c0.39,0.89-0.01,1.93-0.9,2.32C64.73,57.62,62.42,58.39,60.31,58.88z
			"/>
	</g>
	<g>
		<path class="st29" d="M59.9,40.62c-8.82,2.92-13.15-1.39-13.36-1.61c-0.51-0.53-0.5-1.38,0.02-1.9c0.52-0.51,1.36-0.51,1.88,0.02
			c0.21,0.21,4.92,4.64,15.27-1.14c0.64-0.36,1.46-0.13,1.81,0.52c0.36,0.65,0.13,1.46-0.52,1.82
			C63.16,39.36,61.45,40.11,59.9,40.62z"/>
	</g>
	<path class="st24" d="M37.66,29.95h-1.95c-1.68,0-3.05-1.37-3.05-3.05l-0.14-4.49l0.14-2.72c0.24-2.93,1.95-4.38,3.05-4.38h1.95
		c1.68,0,3.05,1.37,3.05,3.05v8.54C40.71,28.58,39.34,29.95,37.66,29.95z"/>
	<path class="st24" d="M71.38,29.95h1.95c1.68,0,3.05-1.37,3.05-3.05l0.14-4.49l-0.14-2.72c-0.24-2.93-1.95-4.38-3.05-4.38h-1.95
		c-1.68,0-3.05,1.37-3.05,3.05v8.54C68.33,28.58,69.69,29.95,71.38,29.95z"/>
	<path class="st14" d="M72.74,21.16c1.42,11.61-7.37,17.11-17.46,17.6s-19.87-4.1-19.1-15.82c0.59-8.9,5.57-17.46,17.72-17.34
		C63.13,5.71,71.2,8.56,72.74,21.16z"/>
	<g>
		<path d="M40.24,24.86c-0.25,3.16,0.71,5.57,2.43,7.34c2.72-3.59,8.77-12.24,10.14-19.59C44.28,13.11,40.7,18.89,40.24,24.86z"/>
		<path class="st30" d="M54.11,12.58c-0.45,0-0.88,0.01-1.3,0.04c-1.37,7.35-7.43,15.99-10.14,19.59c1.1,1.13,2.52,2,4.13,2.61
			c3.24-4.34,10.02-14.25,10.71-22.04C56.41,12.64,55.27,12.58,54.11,12.58z"/>
		<path d="M68.73,23.47c-0.59-4.5-2.49-7.23-5.16-8.83c0.41,7.19-6.89,17.97-9.31,21.33c0.26,0,0.53-0.01,0.79-0.03
			C62.93,35.56,69.8,31.66,68.73,23.47z"/>
		<path d="M57.5,12.77c-0.69,7.79-7.47,17.7-10.71,22.04c1.33,0.51,2.8,0.84,4.34,1.02c3.25-4.33,10.43-14.77,10.37-22.16
			C60.26,13.22,58.92,12.93,57.5,12.77z"/>
		<path class="st31" d="M63.58,14.65c-0.65-0.39-1.34-0.71-2.08-0.98c0.06,7.39-7.13,17.83-10.37,22.16
			c1.02,0.12,2.08,0.17,3.14,0.15C56.69,32.62,63.98,21.84,63.58,14.65z"/>
	</g>
	<g>
		<path class="st3" d="M58.97,48.08h-7.01c-0.7,0-1.26-0.57-1.26-1.27v-2.54c0-0.7,0.55-1.37,1.26-1.27l3.5,0.09l3.56-0.11
			c0.8-0.16,1.21,0.59,1.21,1.29v2.54C60.23,47.51,59.66,48.08,58.97,48.08z"/>
		<path class="st32" d="M53.61,44.43c2.78,0.9,5.56-0.33,5.56-0.33"/>
		<path class="st32" d="M53.61,46.59c2.78,0.9,5.56-0.33,5.56-0.33"/>
		<ellipse class="st18" cx="52.19" cy="44.26" rx="0.62" ry="0.73"/>
		<ellipse class="st18" cx="52.19" cy="46.77" rx="0.62" ry="0.73"/>
	</g>
	<ellipse class="st18" cx="61.49" cy="50.18" rx="1.21" ry="1.22"/>
	<path class="st33" d="M61.84,50.66c0,0-1.51,8.07,4.01,7.51c5.51-0.56,0-4.89,0-4.89s-1.12-3.72,2.02-2.94"/>
</g>
</svg>
